<svg xmlns="http://www.w3.org/2000/svg" viewBox="0 0 512 512">
  <!-- A ring of 64 ticks: the gate wheel as pure geometry. Original mark. -->
  <rect width="512" height="512" fill="#fafaf7"/>
  <g stroke="#a8762a" stroke-width="7" stroke-linecap="round">
    <line x1="256.0" y1="86.0" x2="256.0" y2="36.0"/>
    <line x1="272.7" y1="86.8" x2="277.6" y2="37.1"/>
    <line x1="289.2" y1="89.3" x2="298.9" y2="40.2"/>
    <line x1="305.3" y1="93.3" x2="319.9" y2="45.5"/>
    <line x1="321.1" y1="98.9" x2="340.2" y2="52.7"/>
    <line x1="336.1" y1="106.1" x2="359.7" y2="62.0"/>
    <line x1="350.4" y1="114.7" x2="378.2" y2="73.1"/>
    <line x1="363.8" y1="124.6" x2="395.6" y2="85.9"/>
    <line x1="376.2" y1="135.8" x2="411.6" y2="100.4"/>
    <line x1="387.4" y1="148.2" x2="426.1" y2="116.4"/>
    <line x1="397.3" y1="161.6" x2="438.9" y2="133.8"/>
    <line x1="405.9" y1="175.9" x2="450.0" y2="152.3"/>
    <line x1="413.1" y1="190.9" x2="459.3" y2="171.8"/>
    <line x1="418.7" y1="206.7" x2="466.5" y2="192.1"/>
    <line x1="422.7" y1="222.8" x2="471.8" y2="213.1"/>
    <line x1="425.2" y1="239.3" x2="474.9" y2="234.4"/>
    <line x1="426.0" y1="256.0" x2="476.0" y2="256.0"/>
    <line x1="425.2" y1="272.7" x2="474.9" y2="277.6"/>
    <line x1="422.7" y1="289.2" x2="471.8" y2="298.9"/>
    <line x1="418.7" y1="305.3" x2="466.5" y2="319.9"/>
    <line x1="413.1" y1="321.1" x2="459.3" y2="340.2"/>
    <line x1="405.9" y1="336.1" x2="450.0" y2="359.7"/>
    <line x1="397.3" y1="350.4" x2="438.9" y2="378.2"/>
    <line x1="387.4" y1="363.8" x2="426.1" y2="395.6"/>
    <line x1="376.2" y1="376.2" x2="411.6" y2="411.6"/>
    <line x1="363.8" y1="387.4" x2="395.6" y2="426.1"/>
    <line x1="350.4" y1="397.3" x2="378.2" y2="438.9"/>
    <line x1="336.1" y1="405.9" x2="359.7" y2="450.0"/>
    <line x1="321.1" y1="413.1" x2="340.2" y2="459.3"/>
    <line x1="305.3" y1="418.7" x2="319.9" y2="466.5"/>
    <line x1="289.2" y1="422.7" x2="298.9" y2="471.8"/>
    <line x1="272.7" y1="425.2" x2="277.6" y2="474.9"/>
    <line x1="256.0" y1="426.0" x2="256.0" y2="476.0"/>
    <line x1="239.3" y1="425.2" x2="234.4" y2="474.9"/>
    <line x1="222.8" y1="422.7" x2="213.1" y2="471.8"/>
    <line x1="206.7" y1="418.7" x2="192.1" y2="466.5"/>
    <line x1="190.9" y1="413.1" x2="171.8" y2="459.3"/>
    <line x1="175.9" y1="405.9" x2="152.3" y2="450.0"/>
    <line x1="161.6" y1="397.3" x2="133.8" y2="438.9"/>
    <line x1="148.2" y1="387.4" x2="116.4" y2="426.1"/>
    <line x1="135.8" y1="376.2" x2="100.4" y2="411.6"/>
    <line x1="124.6" y1="363.8" x2="85.9" y2="395.6"/>
    <line x1="114.7" y1="350.4" x2="73.1" y2="378.2"/>
    <line x1="106.1" y1="336.1" x2="62.0" y2="359.7"/>
    <line x1="98.9" y1="321.1" x2="52.7" y2="340.2"/>
    <line x1="93.3" y1="305.3" x2="45.5" y2="319.9"/>
    <line x1="89.3" y1="289.2" x2="40.2" y2="298.9"/>
    <line x1="86.8" y1="272.7" x2="37.1" y2="277.6"/>
    <line x1="86.0" y1="256.0" x2="36.0" y2="256.0"/>
    <line x1="86.8" y1="239.3" x2="37.1" y2="234.4"/>
    <line x1="89.3" y1="222.8" x2="40.2" y2="213.1"/>
    <line x1="93.3" y1="206.7" x2="45.5" y2="192.1"/>
    <line x1="98.9" y1="190.9" x2="52.7" y2="171.8"/>
    <line x1="106.1" y1="175.9" x2="62.0" y2="152.3"/>
    <line x1="114.7" y1="161.6" x2="73.1" y2="133.8"/>
    <line x1="124.6" y1="148.2" x2="85.9" y2="116.4"/>
    <line x1="135.8" y1="135.8" x2="100.4" y2="100.4"/>
    <line x1="148.2" y1="124.6" x2="116.4" y2="85.9"/>
    <line x1="161.6" y1="114.7" x2="133.8" y2="73.1"/>
    <line x1="175.9" y1="106.1" x2="152.3" y2="62.0"/>
    <line x1="190.9" y1="98.9" x2="171.8" y2="52.7"/>
    <line x1="206.7" y1="93.3" x2="192.1" y2="45.5"/>
    <line x1="222.8" y1="89.3" x2="213.1" y2="40.2"/>
    <line x1="239.3" y1="86.8" x2="234.4" y2="37.1"/>
  </g>
  <circle cx="256" cy="256" r="120" fill="none" stroke="#1a1a1a" stroke-width="4"/>
  <circle cx="256" cy="256" r="10" fill="#a8762a"/>
</svg>
